<svg xmlns="http://www.w3.org/2000/svg" viewBox="0 0 67.78 67.78"><defs><style>.cls-1{fill:#d8d8d8;opacity:0.39;}</style></defs><title>facebook</title><g id="Layer_2" data-name="Layer 2"><g id="Layer_1-2" data-name="Layer 1"><path class="cls-1" d="M57.85,9.93a32.86,32.86,0,0,1,9.93,24,32.54,32.54,0,0,1-10,23.86,32.66,32.66,0,0,1-23.89,10,32.19,32.19,0,0,1-23.77-10A33.74,33.74,0,0,1,0,34,32.76,32.76,0,0,1,10,10,32.51,32.51,0,0,1,33.89,0,32.72,32.72,0,0,1,57.85,9.93ZM33.92,2.46a30.23,30.23,0,0,0-22.14,9.32A30.27,30.27,0,0,0,2.46,34a31.36,31.36,0,0,0,9.45,22.09,29.87,29.87,0,0,0,22,9.26,30.17,30.17,0,0,0,22.13-9.26A30.13,30.13,0,0,0,65.31,34a30.3,30.3,0,0,0-9.14-22.18A30.28,30.28,0,0,0,33.92,2.46ZM37.28,55.9V35.81h6.78l1-7.81H37.28V23.62a7.62,7.62,0,0,1,.2-2.29,2.44,2.44,0,0,1,.35-.79c.5-.91,1.8-1.37,3.9-1.37h3.59v-7a49.64,49.64,0,0,0-6-.35q-6.09,0-8.66,4.45A11,11,0,0,0,29.16,22v6h-6.7v7.81h6.7V55.9Z"/></g></g></svg>