<svg xmlns="http://www.w3.org/2000/svg" viewBox="0 0 67.78 67.78"><defs><style>.cls-1{fill:#d8d8d8;opacity:0.39;}</style></defs><title>github</title><g id="Layer_2" data-name="Layer 2"><g id="Layer_1-2" data-name="Layer 1"><path class="cls-1" d="M57.85,9.93a32.86,32.86,0,0,1,9.93,24,32.54,32.54,0,0,1-10,23.86,32.66,32.66,0,0,1-23.89,10,32.19,32.19,0,0,1-23.77-10A33.74,33.74,0,0,1,0,34,32.76,32.76,0,0,1,10,10,32.51,32.51,0,0,1,33.89,0,32.72,32.72,0,0,1,57.85,9.93ZM33.92,2.46a30.21,30.21,0,0,0-22.14,9.32A30.27,30.27,0,0,0,2.46,34a31.36,31.36,0,0,0,9.45,22.09,29.86,29.86,0,0,0,22,9.26,30.17,30.17,0,0,0,22.13-9.26A30.13,30.13,0,0,0,65.31,34a30.3,30.3,0,0,0-9.14-22.18A30.28,30.28,0,0,0,33.92,2.46Zm7.43,52.45h-11V49.33a13,13,0,0,1-2.74.34,7,7,0,0,1-6.74-4.11,21.18,21.18,0,0,0-3-4.38c-.78-.55-1.16-.92-1.16-1.13s.26-.31.72-.31l.44.1a4.08,4.08,0,0,1,3.12,1.34l1,1.33a6.09,6.09,0,0,0,5.38,3.29,7,7,0,0,0,2.91-.51c0-2,.44-3.36,1.33-4.11A14.77,14.77,0,0,1,23.91,38q-3.14-2.62-3.13-7.75c0-3.95.47-6.65,1.4-8.08a18.93,18.93,0,0,1,1.3-1.61,6.59,6.59,0,0,1-.68-3.19,12.69,12.69,0,0,1,.68-3.66l1.75.55A10,10,0,0,1,29,17.8a4.43,4.43,0,0,1,2.07-.94,15.56,15.56,0,0,1,2.7-.33l2,0q5.31,0,6.81,1.3,2.54-3.53,5.51-4.11a10.36,10.36,0,0,1,.79,3.6,7.28,7.28,0,0,1-.79,3.32,7.8,7.8,0,0,1,1.37,1.57,8.61,8.61,0,0,1,1,2.77A26.18,26.18,0,0,1,51,30.23q0,5.13-3.18,7.75A15,15,0,0,1,40,41.18a4.81,4.81,0,0,1,.95,2,8.54,8.54,0,0,1,.38,2.14Z"/></g></g></svg>