<svg xmlns="http://www.w3.org/2000/svg" viewBox="0 0 67.78 67.78"><defs><style>.cls-1{fill:#d8d8d8;opacity:0.39;}</style></defs><title>twitter</title><g id="Layer_2" data-name="Layer 2"><g id="Layer_1-2" data-name="Layer 1"><path class="cls-1" d="M57.85,9.93a32.86,32.86,0,0,1,9.93,24,32.54,32.54,0,0,1-10,23.86,32.66,32.66,0,0,1-23.89,10,32.19,32.19,0,0,1-23.77-10A33.74,33.74,0,0,1,0,34,32.76,32.76,0,0,1,10,10,32.51,32.51,0,0,1,33.89,0,32.72,32.72,0,0,1,57.85,9.93ZM33.92,2.46a30.23,30.23,0,0,0-22.14,9.32A30.27,30.27,0,0,0,2.46,34a31.36,31.36,0,0,0,9.45,22.09,29.87,29.87,0,0,0,22,9.26,30.17,30.17,0,0,0,22.13-9.26A30.13,30.13,0,0,0,65.31,34a30.3,30.3,0,0,0-9.14-22.18A30.28,30.28,0,0,0,33.92,2.46ZM26.29,50.59a23.61,23.61,0,0,0,15.57-5.68,25.17,25.17,0,0,0,7-10.34,23.61,23.61,0,0,0,1.4-7.63V25.47a14.65,14.65,0,0,0,2.33-2,18.6,18.6,0,0,0,1.88-2.33h0a14.26,14.26,0,0,1-4.73,1.34v-.11A9,9,0,0,0,51.48,21a10.63,10.63,0,0,0,1.85-3.21,16.35,16.35,0,0,1-3.46,1.54,12.67,12.67,0,0,1-1.91.48,8.84,8.84,0,0,0-6.13-2.61,8.33,8.33,0,0,0-5.92,2.4,8.19,8.19,0,0,0-2.57,6,8.75,8.75,0,0,0,.24,1.92,28.74,28.74,0,0,1-3.7-.44,28.2,28.2,0,0,1-8.11-3.36,25.52,25.52,0,0,1-5.61-5,8.87,8.87,0,0,0-1.1,4.07,8.7,8.7,0,0,0,2,5.62,6.4,6.4,0,0,0,1.64,1.5V30A8.52,8.52,0,0,1,15,29a8.58,8.58,0,0,0,2.54,6.13,8.49,8.49,0,0,0,2.94,1.81,5.57,5.57,0,0,0,1.16.38,2.92,2.92,0,0,1-.92.24l-1,0h-.31a8.82,8.82,0,0,1-1.51-.14,8.49,8.49,0,0,0,7.88,5.86,18.3,18.3,0,0,1-2.4,1.61,16.85,16.85,0,0,1-7.77,2,20,20,0,0,1-2.29-.11A23.37,23.37,0,0,0,26.29,50.59Z"/></g></g></svg>