<svg xmlns="http://www.w3.org/2000/svg" viewBox="0 0 67.78 67.78"><defs><style>.cls-1{fill:#d8d8d8;opacity:0.39;}</style></defs><title>youtube</title><g id="Layer_2" data-name="Layer 2"><g id="Layer_1-2" data-name="Layer 1"><path class="cls-1" d="M57.85,9.93a32.86,32.86,0,0,1,9.93,24,32.54,32.54,0,0,1-10,23.86,32.66,32.66,0,0,1-23.89,10,32.19,32.19,0,0,1-23.77-10A33.74,33.74,0,0,1,0,34,32.76,32.76,0,0,1,10,10,32.51,32.51,0,0,1,33.89,0,32.72,32.72,0,0,1,57.85,9.93ZM33.92,2.46a30.23,30.23,0,0,0-22.14,9.32A30.27,30.27,0,0,0,2.46,34a31.36,31.36,0,0,0,9.45,22.09,29.87,29.87,0,0,0,22,9.26,30.17,30.17,0,0,0,22.13-9.26A30.13,30.13,0,0,0,65.31,34a30.3,30.3,0,0,0-9.14-22.18A30.28,30.28,0,0,0,33.92,2.46Zm.17,46.73q3.19,0,8.29-.07c4.45-.16,7-.31,7.67-.44a5.51,5.51,0,0,0,2.63-1.13A5.61,5.61,0,0,0,54.46,45q1-2.59,1-9.17V32.31a67.61,67.61,0,0,0-.41-7,8.43,8.43,0,0,0-1.68-4.21,2.55,2.55,0,0,0-.82-.65,4.92,4.92,0,0,0-2.36-1q-3.12-.59-16.33-.58-3.42,0-7.91.1a65.18,65.18,0,0,0-8.52.51,5.53,5.53,0,0,0-3.32,1.95,10.81,10.81,0,0,0-1.44,3.9q-.37,3.87-.38,7,0,9.52.72,11.37a13.76,13.76,0,0,0,.62,2.15,5.79,5.79,0,0,0,3.39,2.64l1.71.24a30,30,0,0,0,4,.31Q30.53,49.19,34.09,49.19Zm-4.65-9.55V27.52l9.55,5c1.39.74,2.09,1.11,2.09,1.13Z"/></g></g></svg>