<svg xmlns="http://www.w3.org/2000/svg" viewBox="0 0 256.05 256.06"><defs><style>.cls-1{fill:#fff;}</style></defs><title>cog</title><g id="Layer_2" data-name="Layer 2"><g id="Layer_1-2" data-name="Layer 1"><path class="cls-1" d="M59.64,238.45c-2.19-1.38-4.39-2.3-6-3.85q-16.22-16-32.2-32.14c-4.25-4.3-4.27-7.56-.42-12.23.43-.52.88-1,1.3-1.53,3.15-3.83,8.27-7.39,8.88-11.59S28.1,167.92,26,163.43a5.35,5.35,0,0,0-3.52-2.6c-4.45-.58-9-.64-13.45-1-6.55-.55-8.93-3-9-9.51Q0,128.07,0,105.82c0-6.5,2.37-9,8.88-9.59a3.68,3.68,0,0,1,1,0c12.5,2.35,18.49-4.27,21-15.42a5.72,5.72,0,0,0-.72-4.25c-3-3.81-6.33-7.3-9.41-11-3.53-4.25-3.54-7.6.28-11.47Q37.4,37.46,54,21.14c3.89-3.84,7.2-3.82,11.49-.43.66.52,1.27,1.09,1.91,1.62,3.83,3.15,7.38,8.29,11.58,8.9S88.13,28.1,92.62,26a5.33,5.33,0,0,0,2.6-3.51c.58-4.45.64-9,1-13.45.55-6.55,3-8.95,9.5-9Q128,0,150.22,0c6.51,0,9,2.36,9.61,8.86a3.7,3.7,0,0,1,0,1c-2.32,12.48,4.23,18.52,15.41,21a5.7,5.7,0,0,0,4.25-.71c3.81-3,7.3-6.32,11-9.41,4.23-3.52,7.6-3.55,11.48.27q16.56,16.31,32.87,32.87c3.85,3.89,3.82,7.22.43,11.5-.51.65-1.08,1.26-1.61,1.9-3.16,3.83-8.29,7.38-8.9,11.59s3.12,9.19,5.27,13.68a5.34,5.34,0,0,0,3.51,2.61c4.45.58,9,.64,13.45,1,6.56.55,8.94,3,9,9.5q.08,22.24,0,44.49c0,6.51-2.37,9-8.86,9.6a3.79,3.79,0,0,1-1,.06c-12.45-2.29-18.53,4.21-21,15.41a5.76,5.76,0,0,0,.73,4.25c3,3.81,6.33,7.3,9.41,11,3.52,4.24,3.53,7.61-.28,11.48q-16.3,16.58-32.87,32.88c-3.9,3.84-7.23,3.81-11.5.41-.65-.52-1.26-1.09-1.9-1.62-3.84-3.15-7.39-8.28-11.59-8.88s-9.2,3.13-13.69,5.28a5.35,5.35,0,0,0-2.6,3.52c-.58,4.45-.64,9-1,13.45-.55,6.55-3,8.92-9.52,8.94q-22.25.08-44.49,0c-6.49,0-9-2.38-9.58-8.88a1.7,1.7,0,0,1,0-.5c2-12-3.29-19-15-21.31a7.06,7.06,0,0,0-5.07.87c-3.73,2.78-7,6.13-10.67,9C63.84,236.53,61.8,237.29,59.64,238.45ZM240.83,111c-5.14-.36-9.78-.79-14.44-1s-7.24-2.22-8.84-6.62c-2.6-7.17-5.51-14.26-8.77-21.15-2-4.23-1.65-7.56,1.44-10.92,3.24-3.54,6.33-7.22,9-10.3L195.08,36.77c-3.05,2.66-6.56,5.49-9.79,8.6-3.77,3.62-7.45,4-12.2,1.57a166.37,166.37,0,0,0-19.76-8.19c-4.74-1.64-7.2-4.3-7.33-9.36-.12-4.63-.63-9.25-1-14.1H111c-.36,4.93-.8,9.71-1,14.49-.21,4.57-2.37,7.18-6.72,8.77-7.17,2.62-14.24,5.56-21.15,8.77-4,1.87-7.28,1.68-10.53-1.24C68,42.77,64.18,39.56,61.24,37,53,45.27,45,53.21,37,61.25c2.73,3.12,5.86,6.79,9.09,10.38,2.93,3.26,3.09,6.53,1.23,10.53-3.23,6.92-6.18,14-8.78,21.15-1.59,4.37-4.21,6.51-8.77,6.72-4.78.22-9.55.66-14.47,1v34c4.87.36,9.49.84,14.12,1s7.54,2.29,9.18,6.88a209.93,209.93,0,0,0,8.57,20.69c2.13,4.42,1.74,7.86-1.5,11.36s-6.28,7.15-9,10.28l24.15,24.22c3.32-2.9,7-6,10.55-9.24,3.37-3.09,6.71-3.39,10.93-1.39A218.12,218.12,0,0,0,103,217.37c4.79,1.7,7,4.57,7.08,9.56.11,4.6.63,9.19,1,13.78h34c.35-5.09.74-9.9,1-14.71.24-4.34,2.33-6.86,6.49-8.4,7.31-2.7,14.52-5.73,21.61-9,3.83-1.76,7-1.53,10.1,1.22,3.74,3.3,7.51,6.55,10.9,9.51,8.13-8.13,16.09-16.11,24.18-24.21-2.85-3.28-6-7-9.22-10.53-3.1-3.41-3.25-6.77-1.26-10.95A222,222,0,0,0,217.43,153c1.63-4.57,4.32-6.79,9.12-7s9.49-.66,14.28-1Z"/><path class="cls-1" d="M183.8,127.91c.08,30.49-25,55.71-55.53,55.9s-56.12-25.25-56-55.92a55.78,55.78,0,0,1,111.55,0Zm-15,.16A40.75,40.75,0,1,0,128,168.78,41,41,0,0,0,168.78,128.07Z"/></g></g></svg>