<svg xmlns="http://www.w3.org/2000/svg" viewBox="0 0 44.44 51.57"><defs><style>.cls-1{fill:#5eddff;}</style></defs><title>copy</title><g id="Layer_2" data-name="Layer 2"><g id="Layer_1-2" data-name="Layer 1"><path class="cls-1" d="M32.7,0V4.72H4.61v32.8H0V4.72A4.61,4.61,0,0,1,1.37,1.43,4.36,4.36,0,0,1,4.61,0Zm7,9.44A4.59,4.59,0,0,1,43,10.81,4.34,4.34,0,0,1,44.44,14V46.85a4.89,4.89,0,0,1-4.72,4.72H14a4.53,4.53,0,0,1-3.29-1.43,4.52,4.52,0,0,1-1.42-3.29V14a4.33,4.33,0,0,1,1.42-3.23A4.59,4.59,0,0,1,14,9.44Zm0,37.41V14H14V46.85Z"/></g></g></svg>