<svg xmlns="http://www.w3.org/2000/svg" viewBox="0 0 42.49 67.42"><defs><style>.cls-1{opacity:0.46;}.cls-2{opacity:0.2;}.cls-3{fill:#fff;}</style></defs><title>noRender</title><g id="Layer_2" data-name="Layer 2"><g id="Layer_1-2" data-name="Layer 1"><g class="cls-1"><g class="cls-2"><path class="cls-3" d="M17.39,33.83a16.85,16.85,0,0,1-1.23-1.17c-2.67-3-5.5-6-7.94-9.17-3.53-4.66-3.83-9.8-1.09-14.94A15.17,15.17,0,0,1,20.54,0,15.74,15.74,0,0,1,37.08,15.17a12.24,12.24,0,0,1-1.77,6.61,46.26,46.26,0,0,1-8.89,10.78L25,33.91h1.78c4.59,0,9.17,0,13.76,0,1,0,2,.12,2,1.39s-1,1.35-2,1.35H22.58V61.87c0,.44.13,1-.08,1.3a2.17,2.17,0,0,1-1.34,1c-.39,0-.94-.52-1.21-1s-.08-.87-.08-1.31V36.64H2.16c-.4,0-.92.11-1.17-.09-.44-.35-1-.91-1-1.36S.66,34.25,1.14,34s.86-.07,1.31-.07H15.81C16.23,33.91,16.66,33.87,17.39,33.83Zm3.83-.33c.61-.52,1.13-.94,1.62-1.39,3.76-3.42,7.44-6.93,9.9-11.44a11.47,11.47,0,0,0,1.53-5A12.73,12.73,0,0,0,22.88,2.83,12.46,12.46,0,0,0,10.2,8.75c-2.86,4.38-2.83,8.82.2,13.21A60.85,60.85,0,0,0,21.22,33.5Z"/></g><path class="cls-3" d="M5.9,47.14H5v-7H6.1l3.39,5.43h0l0-1.35V40.16h.9v7H9.45L5.9,41.45h0l0,1.34Z"/><path class="cls-3" d="M11.36,44.75a2.5,2.5,0,0,1,.7-1.82,2.51,2.51,0,0,1,3.52,0,2.73,2.73,0,0,1,0,3.65,2.51,2.51,0,0,1-3.52,0A2.52,2.52,0,0,1,11.36,44.75Zm.9,0A1.74,1.74,0,0,0,12.71,46a1.52,1.52,0,0,0,2.22,0,1.95,1.95,0,0,0,0-2.49A1.46,1.46,0,0,0,13.82,43a1.48,1.48,0,0,0-1.11.48A1.73,1.73,0,0,0,12.26,44.75Z"/><path class="cls-3" d="M18.84,47.22a1.37,1.37,0,0,1-1-.36,1.35,1.35,0,0,1-.39-1V43.18h-.84v-.82h.84V40.9h.89v1.46h1.17v.82H18.37v2.38a.88.88,0,0,0,.19.65.61.61,0,0,0,.42.17l.21,0,.19-.07.28.8A2.28,2.28,0,0,1,18.84,47.22Z"/><path class="cls-3" d="M20.45,40.16h.9v2.2l0,.67h0a1.64,1.64,0,0,1,.63-.59,2,2,0,0,1,2.23.27,2,2,0,0,1,.47,1.43v3h-.89V44.31c0-.86-.38-1.28-1.14-1.28a1.16,1.16,0,0,0-.93.45,1.59,1.59,0,0,0-.37,1.06v2.6h-.9Z"/><path class="cls-3" d="M26.9,40.71a.65.65,0,0,1-.64.64.63.63,0,0,1-.63-.64.6.6,0,0,1,.18-.44.61.61,0,0,1,.45-.19.58.58,0,0,1,.45.19A.58.58,0,0,1,26.9,40.71Zm-.19,1.65v4.78h-.9V42.36Z"/><path class="cls-3" d="M27.88,42.36h.86V43h0a1.64,1.64,0,0,1,.63-.59,1.75,1.75,0,0,1,.88-.23,1.73,1.73,0,0,1,1.35.5,2,2,0,0,1,.47,1.43v3h-.89V44.2A1.06,1.06,0,0,0,30,43a1.12,1.12,0,0,0-.9.43,1.57,1.57,0,0,0-.36,1v2.64h-.9Z"/><path class="cls-3" d="M35.23,49.4a2.66,2.66,0,0,1-.75-.1,2.47,2.47,0,0,1-.64-.29,2.06,2.06,0,0,1-.49-.44A1.91,1.91,0,0,1,33,48l.85-.35a1.36,1.36,0,0,0,.51.67,1.4,1.4,0,0,0,.83.25,1.49,1.49,0,0,0,1.15-.44,1.69,1.69,0,0,0,.41-1.2v-.46h0a1.84,1.84,0,0,1-.69.6,2.13,2.13,0,0,1-2.55-.51,2.68,2.68,0,0,1-.66-1.82,2.6,2.6,0,0,1,.66-1.8,2.08,2.08,0,0,1,1.61-.74,2,2,0,0,1,.94.22,1.68,1.68,0,0,1,.69.6h0v-.67h.85v4.58a2.43,2.43,0,0,1-.65,1.8A2.38,2.38,0,0,1,35.23,49.4Zm0-2.92A1.38,1.38,0,0,0,36.35,46a1.78,1.78,0,0,0,.44-1.25,1.81,1.81,0,0,0-.44-1.24,1.47,1.47,0,0,0-2.17,0,1.81,1.81,0,0,0-.44,1.24A1.77,1.77,0,0,0,34.18,46,1.41,1.41,0,0,0,35.26,46.48Z"/><path class="cls-3" d="M4.13,55.35a1.38,1.38,0,0,1-1-.37,1.32,1.32,0,0,1-.39-1V51.31H1.93v-.82h.84V49h.89v1.46H4.83v.82H3.66v2.38a.9.9,0,0,0,.19.65.61.61,0,0,0,.42.17.76.76,0,0,0,.21,0,1.06,1.06,0,0,0,.19-.06l.28.8A2.52,2.52,0,0,1,4.13,55.35Z"/><path class="cls-3" d="M5.37,52.88a2.55,2.55,0,0,1,.69-1.83,2.37,2.37,0,0,1,1.77-.72,2.31,2.31,0,0,1,1.75.72,2.53,2.53,0,0,1,.71,1.83,2.47,2.47,0,0,1-.71,1.82,2.31,2.31,0,0,1-1.75.72,2.37,2.37,0,0,1-1.77-.72A2.53,2.53,0,0,1,5.37,52.88Zm.9,0a1.76,1.76,0,0,0,.45,1.25,1.55,1.55,0,0,0,2.22,0,1.76,1.76,0,0,0,.45-1.25,1.73,1.73,0,0,0-.45-1.24,1.47,1.47,0,0,0-1.11-.49,1.44,1.44,0,0,0-1.11.49A1.73,1.73,0,0,0,6.27,52.88Z"/><path class="cls-3" d="M14.15,55.27h-.9V50.49h.86v.78h0a1.32,1.32,0,0,1,.56-.65,1.54,1.54,0,0,1,.83-.27,1.62,1.62,0,0,1,.66.12l-.27.87a1.34,1.34,0,0,0-.52-.07,1.18,1.18,0,0,0-.89.41,1.35,1.35,0,0,0-.37,1Z"/><path class="cls-3" d="M18.64,55.42a2.27,2.27,0,0,1-1.73-.72,2.53,2.53,0,0,1-.69-1.82,2.6,2.6,0,0,1,.67-1.82,2.38,2.38,0,0,1,3.39,0A2.75,2.75,0,0,1,20.91,53V53H17.14a1.53,1.53,0,0,0,.47,1.13A1.52,1.52,0,0,0,20,53.75l.8.39a2.39,2.39,0,0,1-.9.94A2.44,2.44,0,0,1,18.64,55.42ZM17.21,52.3H20a1.19,1.19,0,0,0-.41-.82,1.4,1.4,0,0,0-1-.33,1.36,1.36,0,0,0-.87.31A1.53,1.53,0,0,0,17.21,52.3Z"/><path class="cls-3" d="M21.72,50.49h.86v.66h0a1.62,1.62,0,0,1,.63-.58,1.93,1.93,0,0,1,2.23.26A2,2,0,0,1,26,52.26v3h-.9v-3a1.05,1.05,0,0,0-1.18-1.17,1.13,1.13,0,0,0-.9.44,1.54,1.54,0,0,0-.36,1v2.65h-.9Z"/><path class="cls-3" d="M29,55.42a2.08,2.08,0,0,1-1.61-.74,2.8,2.8,0,0,1,0-3.61A2.11,2.11,0,0,1,29,50.33a2.06,2.06,0,0,1,1,.23,1.68,1.68,0,0,1,.67.59h0l0-.66V48.28h.89v7h-.85V54.6h0a1.7,1.7,0,0,1-.67.6A2.05,2.05,0,0,1,29,55.42Zm.15-.82a1.39,1.39,0,0,0,1.08-.47,2,2,0,0,0,0-2.49,1.38,1.38,0,0,0-1.08-.49,1.41,1.41,0,0,0-1.09.49,2,2,0,0,0,0,2.48A1.43,1.43,0,0,0,29.16,54.6Z"/><path class="cls-3" d="M34.72,55.42A2.27,2.27,0,0,1,33,54.7a2.53,2.53,0,0,1-.69-1.82A2.6,2.6,0,0,1,33,51.06a2.38,2.38,0,0,1,3.39,0A2.75,2.75,0,0,1,37,53V53H33.22a1.53,1.53,0,0,0,.47,1.13,1.52,1.52,0,0,0,2.42-.42l.8.39a2.39,2.39,0,0,1-.9.94A2.44,2.44,0,0,1,34.72,55.42ZM33.29,52.3H36a1.19,1.19,0,0,0-.41-.82,1.4,1.4,0,0,0-1-.33,1.36,1.36,0,0,0-.87.31A1.53,1.53,0,0,0,33.29,52.3Z"/><path class="cls-3" d="M38.7,55.27h-.9V50.49h.86v.78h0a1.32,1.32,0,0,1,.56-.65,1.57,1.57,0,0,1,.84-.27,1.62,1.62,0,0,1,.66.12l-.27.87a1.4,1.4,0,0,0-.53-.07,1.16,1.16,0,0,0-.88.41,1.36,1.36,0,0,0-.38,1Z"/><circle class="cls-3" cx="21.16" cy="64.15" r="3.27"/></g></g></g></svg>