<svg xmlns="http://www.w3.org/2000/svg" viewBox="0 0 44.1 44.14"><defs><style>.cls-1{fill:#f1f2f2;}</style></defs><title>whatsapp</title><g id="Layer_2" data-name="Layer 2"><g id="Layer_1-2" data-name="Layer 1"><path class="cls-1" d="M1,15.29Q7.57,0,21.17,0h2.27a22.57,22.57,0,0,1,7.43,1.51Q44.1,8.57,44.1,21.67A22.88,22.88,0,0,1,39,36q-7.31,7.95-16.59,7.94h-1q-3.62,0-10-2.56H11L.25,44.14A.22.22,0,0,0,0,43.89q1.26-3.86,3.07-11Q.25,27.27.25,23.48V20.16A39.3,39.3,0,0,1,1,15.29ZM14.28,5.08Q3.82,11.68,3.82,20.66v3.07q0,2.89,3.07,8.4a60.46,60.46,0,0,1-1.56,6.39l.51.25h.5l4.87-1.26H12q5.92,2.81,10.21,2.81A22.78,22.78,0,0,0,31.12,38q9.42-6.93,9.41-15.29c-.17,0-.25-.09-.25-.29a.22.22,0,0,0,.25-.25,20,20,0,0,0-1-6.35Q34,3.58,22.43,3.57A24,24,0,0,0,14.28,5.08Zm.25,6.64h.76q1.3,0,3.06,5.37c0,.59-.6,1.62-1.8,3.07v.25a16,16,0,0,0,8.19,7.14l2.81-2.81h.51c3.3,1.18,5,2,5.08,2.56v1.26c0,1.82-1.53,3.1-4.58,3.82H27q-1.14,0-5.59-2Q11,23.18,11,16.84,11,12.64,14.53,11.72Z"/></g></g></svg>